<svg width="237" height="232" viewBox="0 0 237 232" fill="none" xmlns="http://www.w3.org/2000/svg">
<path d="M177 173.368L149.351 99.7224C147.346 94.3815 142.239 90.8438 136.534 90.8438C128.973 90.8438 122.844 96.9732 122.844 104.534V199.339C122.844 205.313 127.687 210.156 133.661 210.156C139.636 210.156 144.479 205.313 144.479 199.339V147.88L164.78 201.705C166.698 206.79 171.565 210.156 177 210.156C182.435 210.156 187.302 206.79 189.22 201.705L209.521 147.88V199.339C209.521 205.313 214.364 210.156 220.339 210.156C226.313 210.156 231.156 205.313 231.156 199.339V104.534C231.156 96.9732 225.027 90.8438 217.466 90.8438C211.761 90.8438 206.654 94.3814 204.649 99.7224L177 173.368Z" stroke="#0288D1" stroke-width="10.3125"/>
<path d="M46.3597 136.82V102.906H67.2997C67.343 102.906 67.3863 102.906 67.4296 102.906C67.5763 103.246 67.74 103.583 67.9212 103.918L88.86 142.565C91.0083 146.53 95.1558 149 99.6655 149C109.015 149 114.941 138.974 110.431 130.783L92.263 97.7818C98.9715 94.2878 104.126 89.3744 107.499 83.0243C110.79 76.8276 112.368 69.8369 112.368 62.1836C112.368 54.5287 110.79 47.5118 107.512 41.2536C104.143 34.8196 98.9677 29.8394 92.2115 26.3007C85.3276 22.6562 76.8513 21 67.0681 21H37C28.7157 21 22 27.7157 22 36V136.82C22 143.547 27.4531 149 34.1798 149C40.9066 149 46.3597 143.547 46.3597 136.82ZM66.8365 80H46.3597V48.6758C46.3597 45.9144 48.5982 43.6758 51.3597 43.6758H66.6049C72.5704 43.6758 76.8668 44.5982 79.8198 46.082L79.8375 46.0908L79.8552 46.0996C82.8795 47.5894 84.8704 49.5767 86.1086 52.0408C87.4724 54.7551 88.2398 58.0881 88.2398 62.1836C88.2398 66.285 87.4704 69.5306 86.1391 72.0938L86.1341 72.1034L86.1291 72.1131C84.9618 74.3846 83.0296 76.2745 79.985 77.7143L79.9763 77.7185L79.9676 77.7226C77.0244 79.1284 72.7497 80 66.8365 80Z" stroke="#0288D1" stroke-width="10"/>
<path fill-rule="evenodd" clip-rule="evenodd" d="M119 0C177.408 0 225.989 41.0196 236.077 95.1184L236 95V98.2737C233.113 93.1886 228.823 89.0296 223.669 86.3428C210.501 42.3552 168.781 10 119 10C105.735 10 93.0426 12.2974 81.3101 16.5H79H69H57.7928C75.6763 6.02417 96.6165 0 119 0ZM194.451 192.5H194.654L194.932 192.048C194.772 192.199 194.612 192.35 194.451 192.5ZM119 222C135.614 222 151.331 218.396 165.388 211.958C168.32 214.469 172.22 216 176.5 216C177.674 216 178.819 215.885 179.923 215.666C162.102 226.039 141.265 232 119 232C53.2781 232 0 180.065 0 116C0 93.4643 6.59245 72.4296 18 54.6284V76.0888C12.8395 88.4226 10 101.901 10 116C10 174.303 58.5587 222 119 222ZM200.743 186.117L192.492 207.242C196.926 203.843 201.106 200.144 205 196.176V181.126C203.633 182.832 202.213 184.496 200.743 186.117Z" fill="#D9D9D9"/>
<path fill-rule="evenodd" clip-rule="evenodd" d="M118 60C118 61.3561 117.904 62.6947 117.718 64.0118C118.144 64.0039 118.571 64 119 64C141.328 64 160.371 74.8957 170.361 90.4131C175.253 98.0129 178 106.736 178 116C178 125.181 175.302 133.832 170.491 141.384L174.682 152.623C176.153 150.82 177.518 148.944 178.769 147C184.64 137.881 188 127.293 188 116C188 104.707 184.64 94.1194 178.769 85C166.839 66.4682 144.54 54 119 54C118.454 54 117.91 54.0057 117.368 54.017C117.784 55.9629 118 57.9617 118 60ZM60 116C60 143.325 84.63 167.275 117.5 167.984V177.986C84.9902 177.363 58.0144 156.536 51.5 128.919V108.5H60.6225C60.2119 110.96 60 113.466 60 116Z" fill="#D9D9D9"/>
</svg>
